# xmcd
#
# Track frame offsets:
#	183
#	10583
#	22943
#	37248
#	49748
#	60108
#	71693
#	81228
#	93233
#	105628
#	117320
#	127235
#	139278
#	151450
#	160795
#	173275
#	187368
#	197063
#	208078
#	219068
#
# Disc length: 3110
#
# Revision: 1
# Processed by: cddbd v1.5.1PL0 Copyright (c) Steve Scherf et al.
# Submitted via: CDex 1.40Beta8
# Normalized: r0:TDELIM( - )
#
DISCID=120c2414
DTITLE=Various Country Artists - Country Junction # disc2
DYEAR=1991
DGENRE=Country
TTITLE0=Faron Young - Forget the past
TTITLE1=Hank Thompson - Wild side of life
TTITLE2=Ernie Ford - Funny how time slips away
TTITLE3=Jean Shepard - My wedding ring
TTITLE4=Tex Ritter - Billy the Kid
TTITLE5=Ferlin Husky - My home in San Antone
TTITLE6=Tex Williams - Shot gun Boogie
TTITLE7=Waanda Jackson - Silver threads and golden needles
TTITLE8=Ernie Ford - Ther'll be no teardrops tonight
TTITLE9=Bill Mack - I can still see him in your eyes
TTITLE10=Jean Shepard - You'd better go
TTITLE11=Country Johny Mathis - If I could keep you off my mind
TTITLE12=George Jones and Melba Montgomery - Out of our minds
TTITLE13=Ferlin Husky - Alabama Jubilee
TTITLE14=Skeets McDonald - Dont let the stars get in your eyes
TTITLE15=Ernie Ford - Mule Train
TTITLE16=Faron Young - I've got five dollars and its Saturdaay night
TTITLE17=Jean Shepard - Crying steel Guitar
TTITLE18=Ferlin Husky - Don't walk away
TTITLE19=Tex Ritter - Rye Whisky
EXTD=YEAR: 1991 ID3G: 2
EXTT0=
EXTT1=
EXTT2=
EXTT3=
EXTT4=
EXTT5=
EXTT6=
EXTT7=
EXTT8=
EXTT9=
EXTT10=
EXTT11=
EXTT12=
EXTT13=
EXTT14=
EXTT15=
EXTT16=
EXTT17=
EXTT18=
EXTT19=
PLAYORDER=
